PathFileType	4	(X/Y/Z)	D:\TRACE\v60_Jaco2_6-2-23\BothDRS_Motion3_4-v60.trc
DataRate	CameraRate	NumFrames	NumMarkers	Units	OrigDataRate	OrigDataStartFrame	OrigNumFrames
100.00	100.00	      27	9	mm	100.00	5251	      7000
Frame#	Time	front left toe			Front right toe			aft left toe			aft right toe			Arm			FL body			FR body			AL Body			AR Body			
		X1	Y1	Z1	X2	Y2	Z2	X3	Y3	Z3	X4	Y4	Z4	X5	Y5	Z5	X6	Y6	Z6	X7	Y7	Z7	X8	Y8	Z8	X9	Y9	Z9	

5251	52.500	-170.34418	-0.37956	-186.53810	225.55571	3.03966	-191.09702	-160.10501	41.85941	426.34750	196.36070	38.93246	440.39197	71.17179	1107.48560	-535.99463	-51.03025	491.16360	-361.88321	108.01464	490.08392	-361.14545	-47.50090	594.33136	577.78796	104.04807	583.22211	577.66156	
5252	52.510	-169.72037	-0.30110	-186.26599	225.77853	1.90065	-191.98532	-160.11444	42.12615	425.82474	196.45967	39.05656	440.39395	72.06509	1107.39026	-536.82373	-50.00354	491.13202	-361.76251	107.91067	490.12692	-361.14523	-46.05862	595.73590	577.44354	106.55442	584.64722	577.82642	
5253	52.520	-169.25073	-0.10724	-186.10292	226.58237	1.56069	-191.06389	-159.39629	43.48838	425.84180	197.22884	39.22536	440.38251	73.15775	1107.41943	-538.08209	-49.54612	491.72006	-361.77966	108.48840	490.64560	-361.43506	-44.58818	596.96906	577.10626	107.11372	585.87378	576.83606	
5254	52.530	-168.50148	1.26925	-186.44618	226.45380	1.16305	-191.82829	-158.17255	42.75865	426.12332	198.17520	40.18785	439.79984	74.16059	1107.70789	-539.33612	-48.88344	492.51846	-361.67313	109.90900	491.58987	-361.76422	-43.06817	598.15399	577.01929	108.24248	586.77271	576.59399	
5255	52.540	-165.37280	6.09288	-185.34908	226.89757	0.45954	-191.46228	-157.41476	42.24496	425.93500	196.47124	43.39079	442.14810	74.88217	1108.13086	-540.14874	-48.17624	493.63565	-362.14169	110.79847	492.46124	-362.31790	-41.44393	598.69269	576.95782	110.00155	587.30951	576.26849	
5256	52.550	-161.04735	9.84984	-180.55045	227.31953	0.40323	-192.36412	-157.00598	42.11396	426.23871	194.33971	48.15127	445.79211	75.40311	1108.86780	-540.08270	-47.50986	494.81799	-362.86945	110.65096	493.25464	-362.48416	-40.40720	599.16632	576.45947	111.06638	587.46143	575.79968	
5257	52.560	-158.29469	18.51621	-178.09512	227.83835	0.16475	-192.03786	-156.70395	42.04436	426.17569	190.48485	57.63067	446.66391	76.14539	1109.75061	-539.70160	-46.65785	494.97662	-363.08047	111.64687	493.33994	-362.78049	-39.00890	599.84460	575.97736	112.34682	588.08582	575.48761	
5258	52.570	-157.38229	29.55843	-178.40930	228.73734	0.19607	-191.71886	-155.93030	42.42082	425.79605	189.35538	67.98350	446.77582	76.82608	1110.87964	-539.11572	-45.81273	494.64471	-363.23138	112.24061	493.21805	-363.21848	-38.10900	600.44092	575.84460	113.28346	588.74213	575.11261	
5259	52.580	-156.95892	40.75641	-179.17554	229.19089	0.00271	-191.63087	-155.70245	42.24999	425.86072	189.67677	80.38467	445.44873	76.75742	1111.41638	-538.83600	-45.07322	494.61227	-363.44186	114.05560	492.89157	-363.36819	-38.05564	600.51050	575.52783	113.64010	588.71222	575.05292	
5260	52.590	-156.65701	54.36226	-181.35368	229.45921	0.02141	-191.61909	-155.57957	41.84267	425.80246	193.67093	92.92455	443.76025	77.71960	1111.24878	-538.61835	-44.06842	494.58679	-363.55011	114.75565	492.80725	-363.27878	-37.93835	600.24670	575.42322	114.12379	588.25983	575.16400	
5261	52.600	-157.08630	67.25770	-182.94817	229.55716	0.05325	-191.58440	-155.49062	41.28060	426.10794	197.43102	105.61711	442.07129	79.57110	1110.48584	-538.45557	-43.20411	494.72797	-363.73737	115.67661	492.71048	-363.15732	-37.83023	599.72980	575.48199	114.60535	587.79053	576.04645	
5262	52.610	-157.14249	79.53230	-184.16391	230.14772	0.25580	-191.38222	-155.29195	41.04536	426.12283	200.39125	117.37035	440.30222	81.76419	1109.97107	-538.11603	-42.34183	494.50803	-363.73697	116.62675	492.65121	-363.00638	-37.96396	599.21375	575.55701	113.38146	587.07465	575.61444	
5263	52.620	-157.91428	92.74261	-185.87460	230.72578	0.12775	-191.20413	-154.97781	40.80703	426.16534	202.65131	128.95499	439.19516	83.80117	1109.72473	-537.77838	-41.46742	494.32404	-363.57272	116.54347	492.73172	-362.56366	-38.04184	598.93256	575.55359	113.44662	586.81488	575.78394	
5264	52.630	-157.26866	104.19850	-186.79240	231.09650	-0.06622	-191.16219	-154.72798	40.64050	426.17511	203.92374	140.23549	438.31668	85.93040	1109.79211	-537.07727	-40.80657	493.99646	-363.73203	117.67365	491.99329	-362.35535	-38.20611	598.96130	575.53540	113.38743	586.67584	576.01080	
5265	52.640	-156.31989	113.85945	-187.73993	231.34471	-0.15997	-191.12267	-154.40593	40.47148	426.07492	204.07713	150.80768	437.42383	87.75304	1109.74548	-536.47833	-40.16266	493.64230	-363.59567	118.06359	491.71799	-362.22812	-38.34467	598.99078	575.64722	113.37093	586.53967	576.20227	
5266	52.650	-155.67729	122.01214	-188.50983	231.39732	-0.24957	-191.17767	-153.48450	40.20414	425.78491	204.30261	159.68327	436.95737	89.04620	1109.60974	-536.32947	-39.27555	493.47787	-363.52979	118.86882	491.39798	-362.02466	-38.55930	598.90649	575.79822	113.39720	586.44330	576.45331	
5267	52.660	-155.61446	128.25528	-188.96010	231.46974	-0.25592	-191.15001	-153.33992	40.09642	425.76840	204.56902	165.55754	437.29688	90.24505	1109.24500	-536.04810	-38.46983	493.42569	-363.23883	119.68720	491.33997	-361.25693	-38.74771	598.83142	575.98395	113.15030	586.36633	576.78961	
5268	52.670	-155.42563	132.09001	-189.18889	231.80353	-0.24173	-190.87932	-153.27922	39.74437	425.92737	204.99396	168.41603	437.69809	91.13600	1108.63733	-536.01489	-37.57806	493.63284	-363.29367	120.30686	491.43564	-360.87732	-39.47549	599.08264	576.33313	113.55492	586.53320	577.94745	
5269	52.680	-155.04019	132.31743	-189.07428	232.43074	-0.07135	-190.62308	-152.91801	39.81981	425.83444	206.09904	168.36110	437.90454	91.94778	1108.13208	-535.84985	-36.52823	493.56802	-362.73981	122.52675	490.71130	-360.62863	-40.22591	599.19666	576.57397	112.40115	586.42267	578.49365	
5270	52.690	-154.71057	129.58925	-188.62914	233.09212	-0.13474	-190.28976	-152.74127	39.70213	425.85049	207.23987	165.54573	438.18561	93.04433	1108.07996	-535.39624	-35.45021	493.38821	-362.45383	122.51608	490.82996	-360.08585	-40.52475	599.23236	576.85980	110.74792	586.07050	577.92517	
5271	52.700	-153.79750	124.97810	-188.45633	233.82904	0.08499	-190.04321	-152.53630	39.52133	425.83719	207.82576	161.01564	438.69321	94.26053	1108.24988	-534.94366	-34.69778	493.21832	-362.00394	123.42037	490.85403	-359.63531	-40.97732	599.21198	577.16882	110.11886	586.37115	578.65839	
5272	52.710	-152.01064	118.94781	-188.63249	234.33542	0.23017	-189.85173	-152.61632	39.63216	425.97119	207.52435	155.54588	439.02084	95.41037	1108.49707	-534.04761	-34.34494	493.49814	-362.10391	124.23627	490.95056	-359.02493	-42.18843	599.20056	577.34827	109.65111	586.15973	579.32831	
5273	52.720	-150.40216	112.10554	-188.95354	234.51196	0.26239	-189.80057	-152.37494	39.38438	425.94812	207.50429	149.00464	439.06839	96.71120	1108.79395	-533.08899	-33.56210	493.54495	-361.80276	125.46929	491.08154	-358.63785	-42.76111	599.15912	577.73938	108.83749	586.09503	579.67206	
5274	52.730	-148.60475	104.36615	-189.61111	234.67625	0.26227	-189.81392	-152.20773	39.15971	425.97849	207.15291	141.47557	439.41620	97.57281	1109.18311	-532.27899	-33.05056	493.77597	-361.62915	125.78871	491.20477	-358.39157	-43.45206	598.87372	577.97803	109.03255	585.82574	580.09332	
5275	52.740	-147.33884	94.99815	-190.31169	234.80594	0.26125	-189.83424	-152.05818	38.94331	425.91943	206.99976	132.92563	439.24564	98.03462	1109.70471	-531.50293	-32.18108	493.73587	-361.22058	126.75636	491.36935	-357.80789	-43.71854	597.87183	577.43091	109.93324	585.71185	581.31079	
5276	52.750	-147.21480	85.52135	-190.91193	234.92665	0.27368	-189.82742	-151.86911	38.67639	425.86969	207.42511	123.18835	439.37463	98.41499	1109.99451	-530.73065	-31.52691	493.93127	-361.10114	127.21599	491.50079	-357.39642	-44.38662	597.69299	577.91553	107.56847	585.38586	581.14368	
5277	52.760	-147.08455	75.68530	-191.15048	235.23933	0.40919	-189.69533	-151.14641	38.03254	425.81915	207.84232	112.88242	439.65961	98.54241	1110.27417	-530.20374	-31.40707	494.35751	-361.09750	127.73450	491.90466	-356.94989	-45.14352	597.07214	578.01996	107.19965	584.92126	581.30176	
